<mxfile host="app.diagrams.net" modified="2022-11-16T02:01:14.703Z" agent="5.0 (Macintosh; Intel Mac OS X 10_15_7) AppleWebKit/537.36 (KHTML, like Gecko) Chrome/107.0.0.0 Safari/537.36" etag="iAIwfGIaxhLYporu6OjT" version="20.5.3" type="github">
  <diagram id="xte9x5PXek2ECf2oN91r" name="Page-1">
    <mxGraphModel dx="824" dy="635" grid="1" gridSize="10" guides="1" tooltips="1" connect="1" arrows="1" fold="1" page="1" pageScale="1" pageWidth="850" pageHeight="1100" math="0" shadow="0">
      <root>
        <mxCell id="0" />
        <mxCell id="1" parent="0" />
        <mxCell id="votgjIrrdmZkr1xVTCx6-3" value="" style="edgeStyle=orthogonalEdgeStyle;rounded=0;orthogonalLoop=1;jettySize=auto;html=1;fontSize=14;" edge="1" parent="1" source="wT2D6kl-QJrfzIs25svH-2" target="votgjIrrdmZkr1xVTCx6-2">
          <mxGeometry relative="1" as="geometry" />
        </mxCell>
        <mxCell id="wT2D6kl-QJrfzIs25svH-2" value="各品牌的包含计算摄影特征的&lt;br&gt;原始输入图片" style="rounded=1;whiteSpace=wrap;html=1;fontSize=13;" parent="1" vertex="1">
          <mxGeometry x="90" y="30" width="190" height="60" as="geometry" />
        </mxCell>
        <mxCell id="wT2D6kl-QJrfzIs25svH-6" value="" style="edgeStyle=orthogonalEdgeStyle;rounded=1;orthogonalLoop=1;jettySize=auto;html=1;fontSize=13;" parent="1" source="wT2D6kl-QJrfzIs25svH-3" target="wT2D6kl-QJrfzIs25svH-5" edge="1">
          <mxGeometry relative="1" as="geometry" />
        </mxCell>
        <mxCell id="wT2D6kl-QJrfzIs25svH-3" value="按语义块分类提取&lt;br&gt;语义渲染特征" style="rounded=1;whiteSpace=wrap;html=1;fontSize=13;" parent="1" vertex="1">
          <mxGeometry x="360" y="170" width="190" height="60" as="geometry" />
        </mxCell>
        <mxCell id="wT2D6kl-QJrfzIs25svH-8" value="" style="edgeStyle=orthogonalEdgeStyle;rounded=1;orthogonalLoop=1;jettySize=auto;html=1;fontSize=13;" parent="1" source="wT2D6kl-QJrfzIs25svH-5" target="wT2D6kl-QJrfzIs25svH-7" edge="1">
          <mxGeometry relative="1" as="geometry" />
        </mxCell>
        <mxCell id="wT2D6kl-QJrfzIs25svH-5" value="对比预训练的各品牌&lt;br&gt;原始语义渲染特征" style="rounded=1;whiteSpace=wrap;html=1;fontSize=13;" parent="1" vertex="1">
          <mxGeometry x="360" y="310" width="190" height="60" as="geometry" />
        </mxCell>
        <mxCell id="wT2D6kl-QJrfzIs25svH-7" value="确定图像来源" style="rounded=1;whiteSpace=wrap;html=1;fontSize=13;" parent="1" vertex="1">
          <mxGeometry x="90" y="310" width="190" height="60" as="geometry" />
        </mxCell>
        <mxCell id="votgjIrrdmZkr1xVTCx6-4" value="" style="edgeStyle=orthogonalEdgeStyle;rounded=0;orthogonalLoop=1;jettySize=auto;html=1;fontSize=14;" edge="1" parent="1" source="votgjIrrdmZkr1xVTCx6-2" target="wT2D6kl-QJrfzIs25svH-3">
          <mxGeometry relative="1" as="geometry" />
        </mxCell>
        <mxCell id="votgjIrrdmZkr1xVTCx6-2" value="对输入图像进行语义分割" style="rounded=1;whiteSpace=wrap;html=1;fontSize=13;" vertex="1" parent="1">
          <mxGeometry x="360" y="30" width="190" height="60" as="geometry" />
        </mxCell>
      </root>
    </mxGraphModel>
  </diagram>
</mxfile>
